<svg width="256" height="256" viewBox="0 0 256 256" fill="none" xmlns="http://www.w3.org/2000/svg">
<rect width="256" height="256" fill="#FF4E52"/>
<g clip-path="url(#clip0_1_178)">
<path d="M48 97.5405H66.805V186.878H103.762V67H48V97.5405Z" fill="white"/>
<path d="M183.554 142.637C190.997 135.359 195.96 128.794 198.571 123.086C201.183 117.377 202.359 111.098 202.359 104.533C202.359 97.1122 200.53 90.5474 196.743 84.8389C192.956 79.1304 187.732 74.7063 181.072 71.7094C174.412 68.5697 166.707 66.9999 157.958 66.9999L124.191 66.9998V97.5402L150.906 97.5403C157.827 97.5403 160.7 99.681 162.529 101.394C164.357 103.106 165.271 105.39 165.271 108.386C165.271 110.813 164.749 113.239 163.573 115.808C162.398 118.091 160.047 121.231 156.652 124.656L116.953 162.046V186.878H204.84V155.482H167.883L183.554 142.637Z" fill="white"/>
</g>
<defs>
<clipPath id="clip0_1_178">
<rect width="160" height="121.905" fill="white" transform="translate(48 67)"/>
</clipPath>
</defs>
</svg>
